<svg width="17" height="16" viewBox="0 0 17 16" fill="none" xmlns="http://www.w3.org/2000/svg">
<path d="M1.50793 8.61543H12.6779L7.79793 13.4954C7.40793 13.8854 7.40793 14.5254 7.79793 14.9154C8.18793 15.3054 8.81793 15.3054 9.20793 14.9154L15.7979 8.32543C16.1879 7.93543 16.1879 7.30543 15.7979 6.91543L9.21793 0.315435C9.0311 0.128182 8.77745 0.0229492 8.51293 0.0229492C8.24842 0.0229492 7.99477 0.128182 7.80793 0.315435C7.41793 0.705435 7.41793 1.33543 7.80793 1.72543L12.6779 6.61543H1.50793C0.957935 6.61543 0.507935 7.06543 0.507935 7.61543C0.507935 8.16543 0.957935 8.61543 1.50793 8.61543Z" fill="#37474F"/>
</svg>
